<svg width="1280" height="360" viewBox="0 0 1280 360" xmlns="http://www.w3.org/2000/svg" role="img" aria-label="RAG Command Center banner">
  <defs>
    <linearGradient id="bg" x1="0" y1="0" x2="1" y2="1">
      <stop offset="0%" stop-color="#080a10"/>
      <stop offset="55%" stop-color="#0d1220"/>
      <stop offset="100%" stop-color="#121826"/>
    </linearGradient>
    <linearGradient id="gold" x1="0" y1="0" x2="1" y2="0">
      <stop offset="0%" stop-color="#b7801c"/>
      <stop offset="50%" stop-color="#d7a645"/>
      <stop offset="100%" stop-color="#f0c56f"/>
    </linearGradient>
    <linearGradient id="blue" x1="0" y1="0" x2="1" y2="1">
      <stop offset="0%" stop-color="#4b8fda"/>
      <stop offset="100%" stop-color="#8fbfff"/>
    </linearGradient>
    <filter id="softGlow" x="-30%" y="-30%" width="160%" height="160%">
      <feGaussianBlur stdDeviation="6" result="blur"/>
      <feMerge>
        <feMergeNode in="blur"/>
        <feMergeNode in="SourceGraphic"/>
      </feMerge>
    </filter>
    <filter id="panelGlow" x="-20%" y="-20%" width="140%" height="140%">
      <feGaussianBlur stdDeviation="10" result="blur"/>
      <feColorMatrix in="blur" type="matrix"
        values="1 0 0 0 0
                0 1 0 0 0
                0 0 1 0 0
                0 0 0 .4 0"/>
      <feMerge>
        <feMergeNode/>
        <feMergeNode in="SourceGraphic"/>
      </feMerge>
    </filter>
    <pattern id="grid" width="32" height="32" patternUnits="userSpaceOnUse">
      <path d="M 32 0 L 0 0 0 32" fill="none" stroke="#243047" stroke-width="1"/>
    </pattern>
  </defs>

  <rect width="1280" height="360" fill="url(#bg)"/>
  <rect width="1280" height="360" fill="url(#grid)" opacity="0.38"/>

  <g opacity="0.18">
    <path d="M0 310 C180 250, 300 250, 480 310 S780 370, 980 300 S1140 230, 1280 285" fill="none" stroke="#4b8fda" stroke-width="2"/>
    <path d="M0 292 C180 232, 300 232, 480 292 S780 352, 980 282 S1140 212, 1280 267" fill="none" stroke="#2fcb80" stroke-width="1.5"/>
    <path d="M0 328 C180 268, 300 268, 480 328 S780 388, 980 318 S1140 248, 1280 303" fill="none" stroke="#d7a645" stroke-width="1.5"/>
  </g>

  <g opacity="0.18">
    <circle cx="1010" cy="180" r="108" fill="none" stroke="url(#blue)" stroke-width="1.6"/>
    <circle cx="1010" cy="180" r="138" fill="none" stroke="url(#gold)" stroke-width="1.2"/>
    <circle cx="1010" cy="180" r="168" fill="none" stroke="#2fcb80" stroke-width="1.0"/>
  </g>

  <g filter="url(#panelGlow)">
    <rect x="72" y="56" width="690" height="248" rx="24" fill="#111722" stroke="#2d3649" stroke-width="2"/>
    <rect x="88" y="74" width="192" height="28" rx="14" fill="#151d2b" stroke="#30384a"/>
    <text x="104" y="93" font-family="IBM Plex Mono, monospace" font-size="12" fill="#8fbfff" letter-spacing="1.2">INTELLIGENCE • ROUTING • OPERATIONS</text>

    <text x="92" y="156" font-family="Inter, Arial, sans-serif" font-size="64" font-weight="800" fill="#f5f7fb">RAG</text>
    <text x="252" y="156" font-family="Inter, Arial, sans-serif" font-size="64" font-weight="800" fill="url(#gold)">COMMAND</text>
    <text x="92" y="214" font-family="Inter, Arial, sans-serif" font-size="58" font-weight="800" fill="#f5f7fb">CENTER</text>

    <text x="94" y="253" font-family="Inter, Arial, sans-serif" font-size="19" fill="#aeb9cb">
      Real estate intelligence platform • public listings • internal CRM • signal engine
    </text>

    <g transform="translate(92 274)">
      <rect x="0" y="0" width="118" height="28" rx="14" fill="rgba(75,143,218,.14)" stroke="rgba(75,143,218,.42)"/>
      <text x="18" y="18" font-family="IBM Plex Mono, monospace" font-size="12" fill="#8fbfff">STATIC + JS</text>

      <rect x="130" y="0" width="150" height="28" rx="14" fill="rgba(215,166,69,.10)" stroke="rgba(215,166,69,.34)"/>
      <text x="148" y="18" font-family="IBM Plex Mono, monospace" font-size="12" fill="#f0c56f">CLOUDFLARE API</text>

      <rect x="292" y="0" width="124" height="28" rx="14" fill="rgba(47,203,128,.10)" stroke="rgba(47,203,128,.34)"/>
      <text x="312" y="18" font-family="IBM Plex Mono, monospace" font-size="12" fill="#70e5ac">ZERO DEPS</text>
    </g>
  </g>

  <g transform="translate(834 72)">
    <rect x="0" y="0" width="360" height="216" rx="24" fill="#0f1520" stroke="#2b3344" stroke-width="2"/>
    <rect x="20" y="18" width="320" height="24" rx="12" fill="#131c2a" stroke="#273145"/>
    <circle cx="36" cy="30" r="4" fill="#ee4764"/>
    <circle cx="51" cy="30" r="4" fill="#d7a645"/>
    <circle cx="66" cy="30" r="4" fill="#2fcb80"/>
    <text x="88" y="34" font-family="IBM Plex Mono, monospace" font-size="11" fill="#8e97a7">/signal/priority/dashboard</text>

    <g transform="translate(24 62)">
      <rect x="0" y="0" width="150" height="58" rx="16" fill="#121b29" stroke="#263146"/>
      <text x="16" y="22" font-family="IBM Plex Mono, monospace" font-size="11" fill="#8e97a7">HOT LEADS</text>
      <text x="16" y="46" font-family="Inter, Arial, sans-serif" font-size="24" font-weight="700" fill="#f5f7fb">24</text>

      <rect x="162" y="0" width="150" height="58" rx="16" fill="#121b29" stroke="#263146"/>
      <text x="178" y="22" font-family="IBM Plex Mono, monospace" font-size="11" fill="#8e97a7">DEAL SCORE</text>
      <text x="178" y="46" font-family="Inter, Arial, sans-serif" font-size="24" font-weight="700" fill="#f0c56f">91%</text>

      <rect x="0" y="72" width="312" height="100" rx="18" fill="#111925" stroke="#263146"/>
      <path d="M18 132 L72 108 L122 118 L176 88 L226 95 L294 68" fill="none" stroke="url(#blue)" stroke-width="3" filter="url(#softGlow)"/>
      <path d="M18 148 L72 140 L122 128 L176 132 L226 114 L294 104" fill="none" stroke="url(#gold)" stroke-width="2"/>
      <text x="18" y="92" font-family="IBM Plex Mono, monospace" font-size="11" fill="#8e97a7">LIVE SIGNAL STACK</text>
      <text x="18" y="162" font-family="IBM Plex Mono, monospace" font-size="10" fill="#5b6578">Victoria / Vancouver / Canada-wide public listing intelligence</text>
    </g>
  </g>

  <g opacity="0.8">
    <text x="1048" y="330" font-family="IBM Plex Mono, monospace" font-size="12" fill="#5b6578">SYSTEM STATE: ACTIVE</text>
  </g>
</svg>
